<svg width="43" height="21" viewBox="0 0 43 21" fill="none" xmlns="http://www.w3.org/2000/svg">
<path d="M3.18 0.2V15H0.38V0.2H3.18ZM23.0403 3.74C23.867 3.74 24.5936 3.90667 25.2203 4.24C25.847 4.56 26.3403 4.98 26.7003 5.5V3.92H29.5203V15.08C29.5203 16.1067 29.3136 17.02 28.9003 17.82C28.487 18.6333 27.867 19.2733 27.0403 19.74C26.2136 20.22 25.2136 20.46 24.0403 20.46C22.467 20.46 21.1736 20.0933 20.1603 19.36C19.1603 18.6267 18.5936 17.6267 18.4603 16.36H21.2403C21.387 16.8667 21.7003 17.2667 22.1803 17.56C22.6736 17.8667 23.267 18.02 23.9603 18.02C24.7736 18.02 25.4336 17.7733 25.9403 17.28C26.447 16.8 26.7003 16.0667 26.7003 15.08V13.36C26.3403 13.88 25.8403 14.3133 25.2003 14.66C24.5736 15.0067 23.8536 15.18 23.0403 15.18C22.107 15.18 21.2536 14.94 20.4803 14.46C19.707 13.98 19.0936 13.3067 18.6403 12.44C18.2003 11.56 17.9803 10.5533 17.9803 9.42C17.9803 8.3 18.2003 7.30667 18.6403 6.44C19.0936 5.57333 19.7003 4.90667 20.4603 4.44C21.2336 3.97333 22.0936 3.74 23.0403 3.74ZM26.7003 9.46C26.7003 8.78 26.567 8.2 26.3003 7.72C26.0336 7.22667 25.6736 6.85333 25.2203 6.6C24.767 6.33333 24.2803 6.2 23.7603 6.2C23.2403 6.2 22.7603 6.32667 22.3203 6.58C21.8803 6.83333 21.5203 7.20667 21.2403 7.7C20.9736 8.18 20.8403 8.75333 20.8403 9.42C20.8403 10.0867 20.9736 10.6733 21.2403 11.18C21.5203 11.6733 21.8803 12.0533 22.3203 12.32C22.7736 12.5867 23.2536 12.72 23.7603 12.72C24.2803 12.72 24.767 12.5933 25.2203 12.34C25.6736 12.0733 26.0336 11.7 26.3003 11.22C26.567 10.7267 26.7003 10.14 26.7003 9.46Z" fill="black"/>
<path d="M10.8664 15.18C9.79974 15.18 8.83974 14.9467 7.98641 14.48C7.13307 14 6.45974 13.3267 5.96641 12.46C5.48641 11.5933 5.24641 10.5933 5.24641 9.46C5.24641 8.32667 5.49307 7.32667 5.98641 6.46C6.49307 5.59333 7.17974 4.92667 8.04641 4.46C8.91307 3.98 9.87974 3.74 10.9464 3.74C12.0131 3.74 12.9797 3.98 13.8464 4.46C14.7131 4.92667 15.3931 5.59333 15.8864 6.46C16.3931 7.32667 16.6464 8.32667 16.6464 9.46C16.6464 10.5933 16.3864 11.5933 15.8664 12.46C15.3597 13.3267 14.6664 14 13.7864 14.48C12.9197 14.9467 11.9464 15.18 10.8664 15.18ZM10.8664 12.74C11.3731 12.74 11.8464 12.62 12.2864 12.38C12.7397 12.1267 13.0997 11.7533 13.3664 11.26C13.6331 10.7667 13.7664 10.1667 13.7664 9.46C13.7664 8.40667 13.4864 7.6 12.9264 7.04C12.3797 6.46667 11.7064 6.18 10.9064 6.18C10.1064 6.18 9.43307 6.46667 8.88641 7.04C8.35307 7.6 8.08641 8.40667 8.08641 9.46C8.08641 10.5133 8.34641 11.3267 8.86641 11.9C9.39974 12.46 10.0664 12.74 10.8664 12.74Z" fill="#FF1B1B"/>
<path d="M37.175 15.18C36.1083 15.18 35.1483 14.9467 34.295 14.48C33.4417 14 32.7683 13.3267 32.275 12.46C31.795 11.5933 31.555 10.5933 31.555 9.46C31.555 8.32667 31.8017 7.32667 32.295 6.46C32.8017 5.59333 33.4883 4.92667 34.355 4.46C35.2217 3.98 36.1883 3.74 37.255 3.74C38.3217 3.74 39.2883 3.98 40.155 4.46C41.0217 4.92667 41.7017 5.59333 42.195 6.46C42.7017 7.32667 42.955 8.32667 42.955 9.46C42.955 10.5933 42.695 11.5933 42.175 12.46C41.6683 13.3267 40.975 14 40.095 14.48C39.2283 14.9467 38.255 15.18 37.175 15.18ZM37.175 12.74C37.6817 12.74 38.155 12.62 38.595 12.38C39.0483 12.1267 39.4083 11.7533 39.675 11.26C39.9417 10.7667 40.075 10.1667 40.075 9.46C40.075 8.40667 39.795 7.6 39.235 7.04C38.6883 6.46667 38.015 6.18 37.215 6.18C36.415 6.18 35.7417 6.46667 35.195 7.04C34.6617 7.6 34.395 8.40667 34.395 9.46C34.395 10.5133 34.655 11.3267 35.175 11.9C35.7083 12.46 36.375 12.74 37.175 12.74Z" fill="#FF3C00"/>
</svg>
